<svg width="16" height="16" viewBox="0 0 16 16" fill="none" xmlns="http://www.w3.org/2000/svg">
<path fill-rule="evenodd" clip-rule="evenodd" d="M12.0202 4.02022C12.2154 3.82496 12.2154 3.50837 12.0202 3.31311C11.8249 3.11785 11.5083 3.11785 11.3131 3.31311L7.66663 6.95956L4.02018 3.31311C3.82492 3.11785 3.50833 3.11785 3.31307 3.31311C3.11781 3.50837 3.11781 3.82496 3.31307 4.02022L6.95952 7.66666L3.31307 11.3131C3.11781 11.5084 3.11781 11.825 3.31307 12.0202C3.50833 12.2155 3.82492 12.2155 4.02018 12.0202L7.66663 8.37377L11.3131 12.0202C11.5083 12.2155 11.8249 12.2155 12.0202 12.0202C12.2154 11.825 12.2154 11.5084 12.0202 11.3131L8.37373 7.66666L12.0202 4.02022Z" fill="#787F85"/>
</svg>
